P3
16 16
255
247
247
247
247
247
247
247
247
247
247
247
247
247
247
247
247
247
247
247
247
247
247
247
247
247
247
247
247
247
247
247
247
247
247
247
247
247
247
247
247
247
247
247
247
247
247
247
247
247
247
247
247
247
247
247
247
247
247
247
247
247
247
247
247
247
247
247
247
247
71
71
71
201
201
201
201
201
201
247
247
247
247
247
247
247
247
247
247
247
247
247
247
247
247
247
247
247
247
247
247
247
247
247
247
247
247
247
247
247
247
247
247
247
247
247
247
247
247
247
247
71
71
71
201
201
201
201
201
201
247
247
247
247
247
247
247
247
247
247
247
247
247
247
247
247
247
247
247
247
247
247
247
247
247
247
247
247
247
247
247
247
247
201
201
201
201
201
201
201
201
201
201
201
201
201
201
201
201
201
201
247
247
247
247
247
247
247
247
247
247
247
247
247
247
247
247
247
247
247
247
247
247
247
247
247
247
247
71
71
71
242
242
242
255
255
255
255
255
255
242
242
242
242
242
242
255
255
255
201
201
201
247
247
247
247
247
247
247
247
247
247
247
247
247
247
247
247
247
247
247
247
247
71
71
71
242
242
242
201
201
201
201
201
201
201
201
201
201
201
201
201
201
201
242
242
242
201
201
201
201
201
201
247
247
247
247
247
247
247
247
247
247
247
247
247
247
247
201
201
201
242
242
242
201
201
201
201
201
201
201
201
201
201
201
201
201
201
201
201
201
201
201
201
201
242
242
242
71
71
71
247
247
247
247
247
247
247
247
247
247
247
247
247
247
247
201
201
201
201
201
201
201
201
201
71
71
71
71
71
71
71
71
71
201
201
201
201
201
201
201
201
201
201
201
201
255
255
255
201
201
201
247
247
247
166
166
166
166
166
166
166
166
166
201
201
201
201
201
201
71
71
71
166
166
166
166
166
166
166
166
166
71
71
71
201
201
201
201
201
201
71
71
71
255
255
255
201
201
201
166
166
166
166
166
166
166
166
166
166
166
166
201
201
201
71
71
71
166
166
166
166
166
166
166
166
166
166
166
166
71
71
71
71
71
71
201
201
201
71
71
71
71
71
71
201
201
201
166
166
166
166
166
166
166
166
166
201
201
201
242
242
242
71
71
71
166
166
166
166
166
166
166
166
166
71
71
71
71
71
71
71
71
71
71
71
71
201
201
201
71
71
71
201
201
201
166
166
166
166
166
166
201
201
201
242
242
242
71
71
71
201
201
201
201
201
201
166
166
166
166
166
166
166
166
166
166
166
166
166
166
166
166
166
166
71
71
71
71
71
71
166
166
166
166
166
166
201
201
201
71
71
71
71
71
71
201
201
201
201
201
201
71
71
71
148
148
148
148
148
148
148
148
148
148
148
148
148
148
148
148
148
148
148
148
148
71
71
71
201
201
201
148
148
148
201
201
201
148
148
148
148
148
148
148
148
148
71
71
71
71
71
71
71
71
71
148
148
148
148
148
148
148
148
148
148
148
148
148
148
148
148
148
148
148
148
148
148
148
148
148
148
148
148
148
148
148
148
148
148
148
148
148
148
148
148
148
148
148
148
148
71
71
71
148
148
148
148
148
148
148
148
148
148
148
148
148
148
148
148
148
148
148
148
148
148
148
148
148
148
148
117
117
117
117
117
117
117
117
117
148
148
148
148
148
148
148
148
148
148
148
148
148
148
148
148
148
148
148
148
148
117
117
117
117
117
117
117
117
117
117
117
117
117
117
117
117
117
117
