P3
16 16
255
188
188
188
188
188
188
188
188
188
188
188
188
188
188
188
220
220
220
220
220
220
220
220
220
220
220
220
220
220
220
220
220
220
220
220
220
188
188
188
188
188
188
188
188
188
188
188
188
188
188
188
188
188
188
188
188
188
220
220
220
220
220
220
220
220
220
220
220
220
18
18
18
51
51
51
51
51
51
220
220
220
220
220
220
220
220
220
220
220
220
188
188
188
188
188
188
188
188
188
220
220
220
220
220
220
220
220
220
220
220
220
220
220
220
220
220
220
220
220
220
18
18
18
51
51
51
51
51
51
220
220
220
220
220
220
220
220
220
220
220
220
188
188
188
188
188
188
220
220
220
220
220
220
220
220
220
220
220
220
220
220
220
51
51
51
51
51
51
51
51
51
51
51
51
51
51
51
51
51
51
220
220
220
220
220
220
220
220
220
188
188
188
220
220
220
220
220
220
220
220
220
220
220
220
220
220
220
18
18
18
228
228
228
65
65
65
65
65
65
228
228
228
228
228
228
65
65
65
51
51
51
220
220
220
220
220
220
220
220
220
220
220
220
220
220
220
220
220
220
220
220
220
18
18
18
228
228
228
51
51
51
51
51
51
51
51
51
51
51
51
51
51
51
228
228
228
51
51
51
51
51
51
220
220
220
220
220
220
220
220
220
220
220
220
220
220
220
51
51
51
228
228
228
51
51
51
51
51
51
51
51
51
51
51
51
51
51
51
51
51
51
51
51
51
228
228
228
18
18
18
220
220
220
220
220
220
220
220
220
220
220
220
220
220
220
51
51
51
51
51
51
51
51
51
18
18
18
18
18
18
18
18
18
51
51
51
51
51
51
51
51
51
51
51
51
65
65
65
51
51
51
220
220
220
70
70
70
70
70
70
70
70
70
51
51
51
51
51
51
18
18
18
70
70
70
70
70
70
70
70
70
18
18
18
51
51
51
51
51
51
18
18
18
65
65
65
51
51
51
70
70
70
70
70
70
70
70
70
70
70
70
51
51
51
18
18
18
70
70
70
70
70
70
70
70
70
70
70
70
18
18
18
18
18
18
51
51
51
18
18
18
18
18
18
51
51
51
70
70
70
70
70
70
70
70
70
51
51
51
228
228
228
18
18
18
70
70
70
70
70
70
70
70
70
18
18
18
18
18
18
18
18
18
18
18
18
51
51
51
18
18
18
51
51
51
70
70
70
70
70
70
51
51
51
228
228
228
18
18
18
51
51
51
51
51
51
70
70
70
70
70
70
70
70
70
70
70
70
70
70
70
70
70
70
18
18
18
18
18
18
70
70
70
70
70
70
51
51
51
18
18
18
18
18
18
51
51
51
51
51
51
18
18
18
3
3
3
3
3
3
3
3
3
3
3
3
3
3
3
3
3
3
3
3
3
18
18
18
51
51
51
3
3
3
51
51
51
3
3
3
3
3
3
3
3
3
18
18
18
18
18
18
18
18
18
3
3
3
3
3
3
3
3
3
3
3
3
3
3
3
3
3
3
3
3
3
3
3
3
3
3
3
3
3
3
3
3
3
3
3
3
3
3
3
3
3
3
3
3
3
18
18
18
3
3
3
3
3
3
3
3
3
3
3
3
3
3
3
3
3
3
3
3
3
3
3
3
3
3
3
4
4
4
4
4
4
4
4
4
3
3
3
3
3
3
3
3
3
3
3
3
3
3
3
3
3
3
3
3
3
4
4
4
4
4
4
4
4
4
4
4
4
4
4
4
4
4
4
