P3
16 16
255
138
163
197
138
163
197
138
163
197
138
163
197
138
163
197
170
182
197
170
182
197
170
182
197
170
182
197
170
182
197
170
182
197
170
182
197
138
163
197
138
163
197
138
163
197
138
163
197
138
163
197
138
163
197
138
163
197
170
182
197
170
182
197
170
182
197
170
182
197
0
0
21
1
92
151
1
92
151
170
182
197
170
182
197
170
182
197
170
182
197
138
163
197
138
163
197
138
163
197
170
182
197
170
182
197
170
182
197
170
182
197
170
182
197
170
182
197
170
182
197
0
0
21
1
92
151
1
92
151
170
182
197
170
182
197
170
182
197
170
182
197
138
163
197
138
163
197
170
182
197
170
182
197
170
182
197
170
182
197
170
182
197
1
92
151
1
92
151
1
92
151
1
92
151
1
92
151
1
92
151
170
182
197
170
182
197
170
182
197
138
163
197
170
182
197
170
182
197
170
182
197
170
182
197
170
182
197
0
0
21
178
185
192
15
130
205
15
130
205
178
185
192
178
185
192
15
130
205
1
92
151
170
182
197
170
182
197
170
182
197
170
182
197
170
182
197
170
182
197
170
182
197
0
0
21
178
185
192
1
92
151
1
92
151
1
92
151
1
92
151
1
92
151
178
185
192
1
92
151
1
92
151
170
182
197
170
182
197
170
182
197
170
182
197
170
182
197
1
92
151
178
185
192
1
92
151
1
92
151
1
92
151
1
92
151
1
92
151
1
92
151
1
92
151
178
185
192
0
0
21
170
182
197
170
182
197
170
182
197
170
182
197
170
182
197
1
92
151
1
92
151
1
92
151
0
0
21
0
0
21
0
0
21
1
92
151
1
92
151
1
92
151
1
92
151
15
130
205
1
92
151
170
182
197
20
116
109
20
116
109
20
116
109
1
92
151
1
92
151
0
0
21
20
116
109
20
116
109
20
116
109
0
0
21
1
92
151
1
92
151
0
0
21
15
130
205
1
92
151
20
116
109
20
116
109
20
116
109
20
116
109
1
92
151
0
0
21
20
116
109
20
116
109
20
116
109
20
116
109
0
0
21
0
0
21
1
92
151
0
0
21
0
0
21
1
92
151
20
116
109
20
116
109
20
116
109
1
92
151
178
185
192
0
0
21
20
116
109
20
116
109
20
116
109
0
0
21
0
0
21
0
0
21
0
0
21
1
92
151
0
0
21
1
92
151
20
116
109
20
116
109
1
92
151
178
185
192
0
0
21
1
92
151
1
92
151
20
116
109
20
116
109
20
116
109
20
116
109
20
116
109
20
116
109
0
0
21
0
0
21
20
116
109
20
116
109
1
92
151
0
0
21
0
0
21
1
92
151
1
92
151
0
0
21
0
98
88
0
98
88
0
98
88
0
98
88
0
98
88
0
98
88
0
98
88
0
0
21
1
92
151
0
98
88
1
92
151
0
98
88
0
98
88
0
98
88
0
0
21
0
0
21
0
0
21
0
98
88
0
98
88
0
98
88
0
98
88
0
98
88
0
98
88
0
98
88
0
98
88
0
98
88
0
98
88
0
98
88
0
98
88
0
98
88
0
98
88
0
98
88
0
0
21
0
98
88
0
98
88
0
98
88
0
98
88
0
98
88
0
98
88
0
98
88
0
98
88
0
98
88
0
67
59
0
67
59
0
67
59
0
98
88
0
98
88
0
98
88
0
98
88
0
98
88
0
98
88
0
98
88
0
67
59
0
67
59
0
67
59
0
67
59
0
67
59
0
67
59
