P3
16 16
255
213
213
213
213
213
213
213
213
213
213
213
213
213
213
213
232
232
232
232
232
232
232
232
232
232
232
232
232
232
232
232
232
232
232
232
232
213
213
213
213
213
213
213
213
213
213
213
213
213
213
213
213
213
213
213
213
213
232
232
232
232
232
232
232
232
232
232
232
232
50
50
50
142
142
142
142
142
142
232
232
232
232
232
232
232
232
232
232
232
232
213
213
213
213
213
213
213
213
213
232
232
232
232
232
232
232
232
232
232
232
232
232
232
232
232
232
232
232
232
232
50
50
50
142
142
142
142
142
142
232
232
232
232
232
232
232
232
232
232
232
232
213
213
213
213
213
213
232
232
232
232
232
232
232
232
232
232
232
232
232
232
232
142
142
142
142
142
142
142
142
142
142
142
142
142
142
142
142
142
142
232
232
232
232
232
232
232
232
232
213
213
213
232
232
232
232
232
232
232
232
232
232
232
232
232
232
232
50
50
50
235
235
235
180
180
180
180
180
180
235
235
235
235
235
235
180
180
180
142
142
142
232
232
232
232
232
232
232
232
232
232
232
232
232
232
232
232
232
232
232
232
232
50
50
50
235
235
235
142
142
142
142
142
142
142
142
142
142
142
142
142
142
142
235
235
235
142
142
142
142
142
142
232
232
232
232
232
232
232
232
232
232
232
232
232
232
232
142
142
142
235
235
235
142
142
142
142
142
142
142
142
142
142
142
142
142
142
142
142
142
142
142
142
142
235
235
235
50
50
50
232
232
232
232
232
232
232
232
232
232
232
232
232
232
232
142
142
142
142
142
142
142
142
142
50
50
50
50
50
50
50
50
50
142
142
142
142
142
142
142
142
142
142
142
142
180
180
180
142
142
142
232
232
232
166
166
166
166
166
166
166
166
166
142
142
142
142
142
142
50
50
50
166
166
166
166
166
166
166
166
166
50
50
50
142
142
142
142
142
142
50
50
50
180
180
180
142
142
142
166
166
166
166
166
166
166
166
166
166
166
166
142
142
142
50
50
50
166
166
166
166
166
166
166
166
166
166
166
166
50
50
50
50
50
50
142
142
142
50
50
50
50
50
50
142
142
142
166
166
166
166
166
166
166
166
166
142
142
142
235
235
235
50
50
50
166
166
166
166
166
166
166
166
166
50
50
50
50
50
50
50
50
50
50
50
50
142
142
142
50
50
50
142
142
142
166
166
166
166
166
166
142
142
142
235
235
235
50
50
50
142
142
142
142
142
142
166
166
166
166
166
166
166
166
166
166
166
166
166
166
166
166
166
166
50
50
50
50
50
50
166
166
166
166
166
166
142
142
142
50
50
50
50
50
50
142
142
142
142
142
142
50
50
50
148
148
148
148
148
148
148
148
148
148
148
148
148
148
148
148
148
148
148
148
148
50
50
50
142
142
142
148
148
148
142
142
142
148
148
148
148
148
148
148
148
148
50
50
50
50
50
50
50
50
50
148
148
148
148
148
148
148
148
148
148
148
148
148
148
148
148
148
148
148
148
148
148
148
148
148
148
148
148
148
148
148
148
148
148
148
148
148
148
148
148
148
148
148
148
148
50
50
50
148
148
148
148
148
148
148
148
148
148
148
148
148
148
148
148
148
148
148
148
148
148
148
148
148
148
148
117
117
117
117
117
117
117
117
117
148
148
148
148
148
148
148
148
148
148
148
148
148
148
148
148
148
148
148
148
148
117
117
117
117
117
117
117
117
117
117
117
117
117
117
117
117
117
117
