P3
16 16
255
216
216
216
216
216
216
216
216
216
216
216
216
216
216
216
233
233
233
233
233
233
233
233
233
233
233
233
233
233
233
233
233
233
233
233
233
216
216
216
216
216
216
216
216
216
216
216
216
216
216
216
216
216
216
216
216
216
233
233
233
233
233
233
233
233
233
233
233
233
46
46
46
131
131
131
131
131
131
233
233
233
233
233
233
233
233
233
233
233
233
216
216
216
216
216
216
216
216
216
233
233
233
233
233
233
233
233
233
233
233
233
233
233
233
233
233
233
233
233
233
46
46
46
131
131
131
131
131
131
233
233
233
233
233
233
233
233
233
233
233
233
216
216
216
216
216
216
233
233
233
233
233
233
233
233
233
233
233
233
233
233
233
131
131
131
131
131
131
131
131
131
131
131
131
131
131
131
131
131
131
233
233
233
233
233
233
233
233
233
216
216
216
233
233
233
233
233
233
233
233
233
233
233
233
233
233
233
46
46
46
235
235
235
166
166
166
166
166
166
235
235
235
235
235
235
166
166
166
131
131
131
233
233
233
233
233
233
233
233
233
233
233
233
233
233
233
233
233
233
233
233
233
46
46
46
235
235
235
131
131
131
131
131
131
131
131
131
131
131
131
131
131
131
235
235
235
131
131
131
131
131
131
233
233
233
233
233
233
233
233
233
233
233
233
233
233
233
131
131
131
235
235
235
131
131
131
131
131
131
131
131
131
131
131
131
131
131
131
131
131
131
131
131
131
235
235
235
46
46
46
233
233
233
233
233
233
233
233
233
233
233
233
233
233
233
131
131
131
131
131
131
131
131
131
46
46
46
46
46
46
46
46
46
131
131
131
131
131
131
131
131
131
131
131
131
166
166
166
131
131
131
233
233
233
131
131
131
131
131
131
131
131
131
131
131
131
131
131
131
46
46
46
131
131
131
131
131
131
131
131
131
46
46
46
131
131
131
131
131
131
46
46
46
166
166
166
131
131
131
131
131
131
131
131
131
131
131
131
131
131
131
131
131
131
46
46
46
131
131
131
131
131
131
131
131
131
131
131
131
46
46
46
46
46
46
131
131
131
46
46
46
46
46
46
131
131
131
131
131
131
131
131
131
131
131
131
131
131
131
235
235
235
46
46
46
131
131
131
131
131
131
131
131
131
46
46
46
46
46
46
46
46
46
46
46
46
131
131
131
46
46
46
131
131
131
131
131
131
131
131
131
131
131
131
235
235
235
46
46
46
131
131
131
131
131
131
131
131
131
131
131
131
131
131
131
131
131
131
131
131
131
131
131
131
46
46
46
46
46
46
131
131
131
131
131
131
131
131
131
46
46
46
46
46
46
131
131
131
131
131
131
46
46
46
96
96
96
96
96
96
96
96
96
96
96
96
96
96
96
96
96
96
96
96
96
46
46
46
131
131
131
96
96
96
131
131
131
96
96
96
96
96
96
96
96
96
46
46
46
46
46
46
46
46
46
96
96
96
96
96
96
96
96
96
96
96
96
96
96
96
96
96
96
96
96
96
96
96
96
96
96
96
96
96
96
96
96
96
96
96
96
96
96
96
96
96
96
96
96
96
46
46
46
96
96
96
96
96
96
96
96
96
96
96
96
96
96
96
96
96
96
96
96
96
96
96
96
96
96
96
76
76
76
76
76
76
76
76
76
96
96
96
96
96
96
96
96
96
96
96
96
96
96
96
96
96
96
96
96
96
76
76
76
76
76
76
76
76
76
76
76
76
76
76
76
76
76
76
