P3
16 16
255
247
247
247
247
247
247
247
247
247
247
247
247
247
247
247
247
247
247
247
247
247
247
247
247
247
247
247
247
247
247
247
247
247
247
247
247
247
247
247
247
247
247
247
247
247
247
247
247
247
247
247
247
247
247
247
247
247
247
247
247
247
247
247
247
247
247
247
247
247
71
71
71
201
201
201
201
201
201
247
247
247
247
247
247
247
247
247
247
247
247
247
247
247
247
247
247
247
247
247
247
247
247
247
247
247
247
247
247
247
247
247
247
247
247
247
247
247
247
247
247
71
71
71
201
201
201
201
201
201
247
247
247
247
247
247
247
247
247
247
247
247
247
247
247
247
247
247
247
247
247
247
247
247
247
247
247
247
247
247
247
247
247
201
201
201
201
201
201
201
201
201
201
201
201
201
201
201
201
201
201
247
247
247
247
247
247
247
247
247
247
247
247
247
247
247
247
247
247
247
247
247
247
247
247
247
247
247
71
71
71
242
242
242
255
255
255
255
255
255
242
242
242
242
242
242
255
255
255
201
201
201
247
247
247
247
247
247
247
247
247
247
247
247
247
247
247
247
247
247
247
247
247
71
71
71
242
242
242
201
201
201
201
201
201
201
201
201
201
201
201
201
201
201
242
242
242
201
201
201
201
201
201
247
247
247
247
247
247
247
247
247
247
247
247
247
247
247
201
201
201
242
242
242
201
201
201
201
201
201
201
201
201
201
201
201
201
201
201
201
201
201
201
201
201
242
242
242
71
71
71
247
247
247
247
247
247
247
247
247
247
247
247
247
247
247
201
201
201
201
201
201
201
201
201
71
71
71
71
71
71
71
71
71
201
201
201
201
201
201
201
201
201
201
201
201
255
255
255
201
201
201
247
247
247
159
159
159
159
159
159
159
159
159
201
201
201
201
201
201
71
71
71
159
159
159
159
159
159
159
159
159
71
71
71
201
201
201
201
201
201
71
71
71
255
255
255
201
201
201
159
159
159
159
159
159
159
159
159
159
159
159
201
201
201
71
71
71
159
159
159
159
159
159
159
159
159
159
159
159
71
71
71
71
71
71
201
201
201
71
71
71
71
71
71
201
201
201
159
159
159
159
159
159
159
159
159
201
201
201
242
242
242
71
71
71
159
159
159
159
159
159
159
159
159
71
71
71
71
71
71
71
71
71
71
71
71
201
201
201
71
71
71
201
201
201
159
159
159
159
159
159
201
201
201
242
242
242
71
71
71
201
201
201
201
201
201
159
159
159
159
159
159
159
159
159
159
159
159
159
159
159
159
159
159
71
71
71
71
71
71
159
159
159
159
159
159
201
201
201
71
71
71
71
71
71
201
201
201
201
201
201
71
71
71
138
138
138
138
138
138
138
138
138
138
138
138
138
138
138
138
138
138
138
138
138
71
71
71
201
201
201
138
138
138
201
201
201
138
138
138
138
138
138
138
138
138
71
71
71
71
71
71
71
71
71
138
138
138
138
138
138
138
138
138
138
138
138
138
138
138
138
138
138
138
138
138
138
138
138
138
138
138
138
138
138
138
138
138
138
138
138
138
138
138
138
138
138
138
138
138
71
71
71
138
138
138
138
138
138
138
138
138
138
138
138
138
138
138
138
138
138
138
138
138
138
138
138
138
138
138
109
109
109
109
109
109
109
109
109
138
138
138
138
138
138
138
138
138
138
138
138
138
138
138
138
138
138
138
138
138
109
109
109
109
109
109
109
109
109
109
109
109
109
109
109
109
109
109
