P3
16 16
255
238
255
255
238
255
255
238
255
255
238
255
255
238
255
255
255
255
255
255
255
255
255
255
255
255
255
255
255
255
255
255
255
255
255
255
255
238
255
255
238
255
255
238
255
255
238
255
255
238
255
255
238
255
255
238
255
255
255
255
255
255
255
255
255
255
255
255
255
255
68
100
121
101
192
251
101
192
251
255
255
255
255
255
255
255
255
255
255
255
255
238
255
255
238
255
255
238
255
255
255
255
255
255
255
255
255
255
255
255
255
255
255
255
255
255
255
255
255
255
255
68
100
121
101
192
251
101
192
251
255
255
255
255
255
255
255
255
255
255
255
255
238
255
255
238
255
255
255
255
255
255
255
255
255
255
255
255
255
255
255
255
255
101
192
251
101
192
251
101
192
251
101
192
251
101
192
251
101
192
251
255
255
255
255
255
255
255
255
255
238
255
255
255
255
255
255
255
255
255
255
255
255
255
255
255
255
255
68
100
121
255
255
255
115
230
255
115
230
255
255
255
255
255
255
255
115
230
255
101
192
251
255
255
255
255
255
255
255
255
255
255
255
255
255
255
255
255
255
255
255
255
255
68
100
121
255
255
255
101
192
251
101
192
251
101
192
251
101
192
251
101
192
251
255
255
255
101
192
251
101
192
251
255
255
255
255
255
255
255
255
255
255
255
255
255
255
255
101
192
251
255
255
255
101
192
251
101
192
251
101
192
251
101
192
251
101
192
251
101
192
251
101
192
251
255
255
255
68
100
121
255
255
255
255
255
255
255
255
255
255
255
255
255
255
255
101
192
251
101
192
251
101
192
251
68
100
121
68
100
121
68
100
121
101
192
251
101
192
251
101
192
251
101
192
251
115
230
255
101
192
251
255
255
255
120
216
209
120
216
209
120
216
209
101
192
251
101
192
251
68
100
121
120
216
209
120
216
209
120
216
209
68
100
121
101
192
251
101
192
251
68
100
121
115
230
255
101
192
251
120
216
209
120
216
209
120
216
209
120
216
209
101
192
251
68
100
121
120
216
209
120
216
209
120
216
209
120
216
209
68
100
121
68
100
121
101
192
251
68
100
121
68
100
121
101
192
251
120
216
209
120
216
209
120
216
209
101
192
251
255
255
255
68
100
121
120
216
209
120
216
209
120
216
209
68
100
121
68
100
121
68
100
121
68
100
121
101
192
251
68
100
121
101
192
251
120
216
209
120
216
209
101
192
251
255
255
255
68
100
121
101
192
251
101
192
251
120
216
209
120
216
209
120
216
209
120
216
209
120
216
209
120
216
209
68
100
121
68
100
121
120
216
209
120
216
209
101
192
251
68
100
121
68
100
121
101
192
251
101
192
251
68
100
121
53
198
188
53
198
188
53
198
188
53
198
188
53
198
188
53
198
188
53
198
188
68
100
121
101
192
251
53
198
188
101
192
251
53
198
188
53
198
188
53
198
188
68
100
121
68
100
121
68
100
121
53
198
188
53
198
188
53
198
188
53
198
188
53
198
188
53
198
188
53
198
188
53
198
188
53
198
188
53
198
188
53
198
188
53
198
188
53
198
188
53
198
188
53
198
188
68
100
121
53
198
188
53
198
188
53
198
188
53
198
188
53
198
188
53
198
188
53
198
188
53
198
188
53
198
188
54
167
159
54
167
159
54
167
159
53
198
188
53
198
188
53
198
188
53
198
188
53
198
188
53
198
188
53
198
188
54
167
159
54
167
159
54
167
159
54
167
159
54
167
159
54
167
159
