P3
16 16
255
210
210
210
210
210
210
210
210
210
210
210
210
210
210
210
230
230
230
230
230
230
230
230
230
230
230
230
230
230
230
230
230
230
230
230
230
210
210
210
210
210
210
210
210
210
210
210
210
210
210
210
210
210
210
210
210
210
230
230
230
230
230
230
230
230
230
230
230
230
44
44
44
126
126
126
126
126
126
230
230
230
230
230
230
230
230
230
230
230
230
210
210
210
210
210
210
210
210
210
230
230
230
230
230
230
230
230
230
230
230
230
230
230
230
230
230
230
230
230
230
44
44
44
126
126
126
126
126
126
230
230
230
230
230
230
230
230
230
230
230
230
210
210
210
210
210
210
230
230
230
230
230
230
230
230
230
230
230
230
230
230
230
126
126
126
126
126
126
126
126
126
126
126
126
126
126
126
126
126
126
230
230
230
230
230
230
230
230
230
210
210
210
230
230
230
230
230
230
230
230
230
230
230
230
230
230
230
44
44
44
234
234
234
160
160
160
160
160
160
234
234
234
234
234
234
160
160
160
126
126
126
230
230
230
230
230
230
230
230
230
230
230
230
230
230
230
230
230
230
230
230
230
44
44
44
234
234
234
126
126
126
126
126
126
126
126
126
126
126
126
126
126
126
234
234
234
126
126
126
126
126
126
230
230
230
230
230
230
230
230
230
230
230
230
230
230
230
126
126
126
234
234
234
126
126
126
126
126
126
126
126
126
126
126
126
126
126
126
126
126
126
126
126
126
234
234
234
44
44
44
230
230
230
230
230
230
230
230
230
230
230
230
230
230
230
126
126
126
126
126
126
126
126
126
44
44
44
44
44
44
44
44
44
126
126
126
126
126
126
126
126
126
126
126
126
160
160
160
126
126
126
230
230
230
145
145
145
145
145
145
145
145
145
126
126
126
126
126
126
44
44
44
145
145
145
145
145
145
145
145
145
44
44
44
126
126
126
126
126
126
44
44
44
160
160
160
126
126
126
145
145
145
145
145
145
145
145
145
145
145
145
126
126
126
44
44
44
145
145
145
145
145
145
145
145
145
145
145
145
44
44
44
44
44
44
126
126
126
44
44
44
44
44
44
126
126
126
145
145
145
145
145
145
145
145
145
126
126
126
234
234
234
44
44
44
145
145
145
145
145
145
145
145
145
44
44
44
44
44
44
44
44
44
44
44
44
126
126
126
44
44
44
126
126
126
145
145
145
145
145
145
126
126
126
234
234
234
44
44
44
126
126
126
126
126
126
145
145
145
145
145
145
145
145
145
145
145
145
145
145
145
145
145
145
44
44
44
44
44
44
145
145
145
145
145
145
126
126
126
44
44
44
44
44
44
126
126
126
126
126
126
44
44
44
116
116
116
116
116
116
116
116
116
116
116
116
116
116
116
116
116
116
116
116
116
44
44
44
126
126
126
116
116
116
126
126
126
116
116
116
116
116
116
116
116
116
44
44
44
44
44
44
44
44
44
116
116
116
116
116
116
116
116
116
116
116
116
116
116
116
116
116
116
116
116
116
116
116
116
116
116
116
116
116
116
116
116
116
116
116
116
116
116
116
116
116
116
116
116
116
44
44
44
116
116
116
116
116
116
116
116
116
116
116
116
116
116
116
116
116
116
116
116
116
116
116
116
116
116
116
92
92
92
92
92
92
92
92
92
116
116
116
116
116
116
116
116
116
116
116
116
116
116
116
116
116
116
116
116
116
92
92
92
92
92
92
92
92
92
92
92
92
92
92
92
92
92
92
