P3
16 16
255
203
234
255
255
255
255
199
232
255
199
232
255
215
242
255
255
255
255
247
251
255
222
238
255
180
215
244
255
255
255
255
255
255
255
255
255
236
253
255
203
234
255
255
255
255
199
232
255
255
255
255
255
255
255
255
255
255
255
255
255
255
255
255
255
255
255
255
255
255
189
194
204
129
218
255
142
253
255
255
255
255
255
255
255
255
255
255
255
255
255
255
255
255
255
255
255
207
237
255
255
255
255
236
241
247
255
255
255
255
255
255
255
255
255
219
224
234
75
119
151
0
0
0
0
25
119
0
100
182
203
220
235
255
255
252
255
255
255
255
255
255
203
234
255
219
244
255
255
255
255
255
255
255
255
255
255
239
233
237
255
250
251
121
192
240
58
161
228
32
138
206
28
120
177
59
159
222
33
140
208
204
231
255
255
255
252
255
255
255
236
253
255
243
255
255
255
255
255
255
255
255
235
231
237
224
197
187
32
34
35
167
206
230
0
167
255
30
178
255
212
235
251
236
252
255
50
181
255
16
140
219
186
220
246
255
255
255
255
255
255
251
255
255
255
255
255
248
255
255
238
232
235
38
50
58
243
220
206
64
170
238
53
195
255
70
195
255
125
199
248
146
205
243
236
252
255
26
113
167
65
123
160
255
255
255
255
255
255
255
255
255
255
255
255
255
255
255
89
158
222
165
207
250
43
120
186
19
112
197
0
54
139
0
65
155
0
86
175
35
152
236
81
174
234
161
190
207
0
47
86
255
255
255
255
255
255
247
255
255
255
255
255
206
243
255
59
170
255
0
105
225
43
124
194
0
12
49
0
32
39
13
38
54
22
115
184
14
147
250
86
190
255
33
138
205
35
149
240
158
255
255
255
255
255
81
189
173
162
255
254
38
171
170
0
104
190
0
61
167
0
6
23
46
140
105
80
172
111
62
137
99
16
41
49
28
135
222
33
143
214
0
57
103
0
100
213
83
255
255
87
211
214
7
159
125
29
248
205
50
190
174
20
105
167
6
21
48
42
128
89
107
239
176
109
247
198
57
131
110
0
0
0
0
0
21
28
89
154
0
0
28
0
0
54
73
236
255
68
203
203
72
207
190
153
255
255
147
211
254
254
223
240
37
43
78
62
150
137
130
248
216
125
221
197
55
49
67
28
0
2
42
20
45
47
51
80
34
43
87
6
0
22
101
222
255
109
239
224
64
162
173
117
214
255
255
212
242
116
90
157
79
130
229
41
144
214
87
221
200
75
208
181
70
166
159
61
127
123
76
159
140
80
192
186
13
2
21
30
5
72
114
227
243
106
238
241
43
135
220
73
138
193
18
30
51
72
123
199
7
60
173
8
0
67
6
123
121
8
190
160
10
213
185
20
203
179
29
221
185
14
204
171
0
113
89
13
23
51
69
218
255
28
209
196
22
146
213
0
200
210
0
124
92
0
144
140
0
39
74
8
0
0
0
0
0
0
115
102
0
165
145
0
144
132
0
162
146
0
193
169
0
161
140
0
159
164
0
250
249
0
196
193
7
234
220
3
255
255
0
255
207
0
255
221
0
245
212
6
156
149
17
118
132
8
216
207
1
255
244
5
236
220
5
228
213
3
233
214
0
238
210
0
238
210
0
255
255
0
223
196
0
132
114
0
176
155
0
144
123
0
187
168
0
219
192
1
178
163
1
178
163
3
166
155
0
194
175
3
162
151
4
131
122
4
123
115
4
127
119
4
127
119
5
179
167
4
131
122
