P3
16 16
255
105
119
138
141
159
185
143
160
185
147
163
185
153
166
185
161
171
185
152
162
174
129
145
160
120
145
165
133
157
176
154
168
182
161
171
185
153
166
185
147
163
185
143
160
185
105
119
138
143
160
185
194
216
247
200
220
247
208
224
247
214
228
247
218
230
247
194
209
225
135
163
186
95
147
182
112
170
210
167
203
232
207
225
244
214
228
247
208
224
247
198
218
247
143
160
185
147
163
185
206
223
247
214
228
247
218
230
247
220
232
247
209
226
244
175
203
227
116
158
188
61
124
166
57
136
187
103
170
215
167
203
232
209
226
244
218
230
247
208
224
247
147
163
185
153
166
185
214
228
247
220
232
247
220
232
247
207
220
236
174
198
218
135
184
218
94
166
214
71
149
200
83
156
203
95
167
214
116
180
224
168
206
236
209
226
244
214
228
247
153
166
185
161
171
185
218
230
247
220
232
247
207
220
236
170
186
202
137
164
185
114
169
207
78
167
226
78
167
226
119
181
223
130
187
225
109
180
227
116
180
224
167
203
232
207
225
244
161
171
185
165
174
185
220
232
247
209
226
244
174
198
218
137
164
185
119
159
186
94
161
206
64
154
213
64
154
213
85
161
212
107
173
217
119
181
223
104
167
209
121
170
204
186
209
230
165
174
185
165
174
185
220
232
247
188
215
238
134
181
215
112
165
200
91
153
195
55
130
179
42
119
168
44
124
176
48
136
192
62
147
203
95
165
211
103
161
200
98
152
189
153
189
216
154
168
182
136
161
168
182
215
225
149
197
219
94
166
209
71
147
198
55
126
168
40
106
136
39
102
125
40
106
136
43
120
165
48
136
192
60
142
195
69
143
191
71
150
202
105
173
214
114
148
165
80
136
135
107
182
181
93
172
186
63
146
187
43
120
165
44
115
139
52
128
134
57
137
137
49
121
128
38
100
128
40
113
160
42
119
168
39
108
154
45
127
180
65
153
198
66
126
140
52
124
119
68
164
161
73
162
177
70
140
173
51
112
138
52
128
134
66
158
153
66
158
153
50
122
126
29
77
95
28
78
111
34
96
136
31
86
123
34
95
134
50
133
169
47
118
129
51
123
121
75
164
174
99
167
190
97
143
170
62
117
141
56
139
150
68
164
161
63
151
148
47
115
120
34
86
98
33
84
101
36
94
120
31
86
117
31
86
117
49
128
152
48
120
127
44
111
124
72
143
168
97
143
170
82
130
162
52
120
160
47
132
159
51
152
154
50
154
148
43
139
137
40
132
131
40
132
131
35
123
128
25
94
110
29
87
110
48
129
146
41
119
121
33
98
125
41
115
140
46
114
133
42
120
151
35
107
148
29
98
125
23
120
124
20
146
139
19
152
143
19
152
143
19
152
143
16
145
137
11
118
118
19
105
117
30
131
145
20
113
115
21
102
122
14
128
137
8
129
129
14
128
137
18
104
120
16
80
95
11
92
100
5
129
125
3
148
138
3
148
138
3
148
138
3
148
138
3
141
133
7
135
133
9
141
141
5
110
107
8
104
105
6
139
134
3
142
132
4
139
132
5
129
125
8
111
112
9
105
108
5
129
125
3
148
138
3
146
136
3
142
132
3
140
130
3
140
130
3
140
130
3
140
130
2
105
98
2
71
66
2
95
89
2
99
92
2
107
99
2
111
103
3
104
99
4
98
95
3
104
99
2
111
103
2
107
99
2
99
92
2
95
89
2
95
89
2
95
89
2
95
89
2
71
66
