P3
16 16
255
4
117
109
4
117
109
4
117
109
4
117
109
4
117
109
4
117
109
3
148
138
3
148
138
3
148
138
3
148
138
3
148
138
3
148
138
3
148
138
4
117
109
4
117
109
4
117
109
3
148
138
3
148
138
3
148
138
3
148
138
3
148
138
3
148
138
3
148
138
3
148
138
3
148
138
18
50
71
3
148
138
3
148
138
3
148
138
3
148
138
3
148
138
3
148
138
3
148
138
3
148
138
3
148
138
3
148
138
3
148
138
3
148
138
3
148
138
3
148
138
3
148
138
18
50
71
18
50
71
18
50
71
3
148
138
3
148
138
3
148
138
51
142
201
3
148
138
51
142
201
18
50
71
3
148
138
3
148
138
3
148
138
3
148
138
3
148
138
3
148
138
3
148
138
18
50
71
51
142
201
51
142
201
18
50
71
18
50
71
51
142
201
70
166
159
70
166
159
18
50
71
18
50
71
70
166
159
70
166
159
70
166
159
70
166
159
70
166
159
70
166
159
51
142
201
51
142
201
18
50
71
228
235
242
51
142
201
70
166
159
70
166
159
51
142
201
18
50
71
51
142
201
18
50
71
18
50
71
18
50
71
18
50
71
70
166
159
70
166
159
70
166
159
18
50
71
228
235
242
51
142
201
70
166
159
70
166
159
70
166
159
51
142
201
18
50
71
18
50
71
51
142
201
18
50
71
18
50
71
70
166
159
70
166
159
70
166
159
70
166
159
18
50
71
51
142
201
70
166
159
70
166
159
70
166
159
70
166
159
51
142
201
65
180
255
18
50
71
51
142
201
51
142
201
18
50
71
70
166
159
70
166
159
70
166
159
18
50
71
51
142
201
51
142
201
70
166
159
70
166
159
70
166
159
220
232
247
51
142
201
65
180
255
51
142
201
51
142
201
51
142
201
51
142
201
18
50
71
18
50
71
18
50
71
51
142
201
51
142
201
51
142
201
220
232
247
220
232
247
220
232
247
220
232
247
220
232
247
18
50
71
228
235
242
51
142
201
51
142
201
51
142
201
51
142
201
51
142
201
51
142
201
51
142
201
228
235
242
51
142
201
220
232
247
220
232
247
220
232
247
220
232
247
220
232
247
51
142
201
51
142
201
228
235
242
51
142
201
51
142
201
51
142
201
51
142
201
51
142
201
228
235
242
18
50
71
220
232
247
220
232
247
220
232
247
220
232
247
220
232
247
220
232
247
220
232
247
51
142
201
65
180
255
228
235
242
228
235
242
65
180
255
65
180
255
228
235
242
18
50
71
220
232
247
220
232
247
220
232
247
220
232
247
220
232
247
188
213
247
220
232
247
220
232
247
220
232
247
51
142
201
51
142
201
51
142
201
51
142
201
51
142
201
51
142
201
220
232
247
220
232
247
220
232
247
220
232
247
220
232
247
188
213
247
188
213
247
220
232
247
220
232
247
220
232
247
220
232
247
51
142
201
51
142
201
18
50
71
220
232
247
220
232
247
220
232
247
220
232
247
220
232
247
220
232
247
220
232
247
188
213
247
188
213
247
188
213
247
220
232
247
220
232
247
220
232
247
220
232
247
51
142
201
51
142
201
18
50
71
220
232
247
220
232
247
220
232
247
220
232
247
188
213
247
188
213
247
188
213
247
188
213
247
188
213
247
188
213
247
188
213
247
220
232
247
220
232
247
220
232
247
220
232
247
220
232
247
220
232
247
220
232
247
188
213
247
188
213
247
188
213
247
188
213
247
188
213
247
