P3
16 16
255
255
253
197
255
253
197
255
253
197
255
253
197
255
253
197
255
255
216
255
255
216
255
255
216
255
255
216
255
255
216
255
255
216
255
255
216
255
253
197
255
253
197
255
253
197
255
253
197
255
253
197
255
253
197
255
253
197
255
255
216
255
255
216
255
255
216
255
255
216
58
52
40
167
148
116
167
148
116
255
255
216
255
255
216
255
255
216
255
255
216
255
253
197
255
253
197
255
253
197
255
255
216
255
255
216
255
255
216
255
255
216
255
255
216
255
255
216
255
255
216
58
52
40
167
148
116
167
148
116
255
255
216
255
255
216
255
255
216
255
255
216
255
253
197
255
253
197
255
255
216
255
255
216
255
255
216
255
255
216
255
255
216
167
148
116
167
148
116
167
148
116
167
148
116
167
148
116
167
148
116
255
255
216
255
255
216
255
255
216
255
253
197
255
255
216
255
255
216
255
255
216
255
255
216
255
255
216
58
52
40
255
255
219
212
189
147
212
189
147
255
255
219
255
255
219
212
189
147
167
148
116
255
255
216
255
255
216
255
255
216
255
255
216
255
255
216
255
255
216
255
255
216
58
52
40
255
255
219
167
148
116
167
148
116
167
148
116
167
148
116
167
148
116
255
255
219
167
148
116
167
148
116
255
255
216
255
255
216
255
255
216
255
255
216
255
255
216
167
148
116
255
255
219
167
148
116
167
148
116
167
148
116
167
148
116
167
148
116
167
148
116
167
148
116
255
255
219
58
52
40
255
255
216
255
255
216
255
255
216
255
255
216
255
255
216
167
148
116
167
148
116
167
148
116
58
52
40
58
52
40
58
52
40
167
148
116
167
148
116
167
148
116
167
148
116
212
189
147
167
148
116
255
255
216
185
165
128
185
165
128
185
165
128
167
148
116
167
148
116
58
52
40
185
165
128
185
165
128
185
165
128
58
52
40
167
148
116
167
148
116
58
52
40
212
189
147
167
148
116
185
165
128
185
165
128
185
165
128
185
165
128
167
148
116
58
52
40
185
165
128
185
165
128
185
165
128
185
165
128
58
52
40
58
52
40
167
148
116
58
52
40
58
52
40
167
148
116
185
165
128
185
165
128
185
165
128
167
148
116
255
255
219
58
52
40
185
165
128
185
165
128
185
165
128
58
52
40
58
52
40
58
52
40
58
52
40
167
148
116
58
52
40
167
148
116
185
165
128
185
165
128
167
148
116
255
255
219
58
52
40
167
148
116
167
148
116
185
165
128
185
165
128
185
165
128
185
165
128
185
165
128
185
165
128
58
52
40
58
52
40
185
165
128
185
165
128
167
148
116
58
52
40
58
52
40
167
148
116
167
148
116
58
52
40
141
125
97
141
125
97
141
125
97
141
125
97
141
125
97
141
125
97
141
125
97
58
52
40
167
148
116
141
125
97
167
148
116
141
125
97
141
125
97
141
125
97
58
52
40
58
52
40
58
52
40
141
125
97
141
125
97
141
125
97
141
125
97
141
125
97
141
125
97
141
125
97
141
125
97
141
125
97
141
125
97
141
125
97
141
125
97
141
125
97
141
125
97
141
125
97
58
52
40
141
125
97
141
125
97
141
125
97
141
125
97
141
125
97
141
125
97
141
125
97
141
125
97
141
125
97
112
99
77
112
99
77
112
99
77
141
125
97
141
125
97
141
125
97
141
125
97
141
125
97
141
125
97
141
125
97
112
99
77
112
99
77
112
99
77
112
99
77
112
99
77
112
99
77
