P3
16 16
255
197
214
244
192
207
238
198
212
241
199
210
240
201
212
240
233
247
255
204
222
246
210
235
255
214
242
255
204
236
255
195
230
252
199
231
254
194
221
250
197
220
251
181
197
231
197
211
246
189
205
231
193
207
234
199
213
240
211
225
254
199
214
243
219
238
255
212
238
255
17
49
74
82
119
145
94
134
159
198
238
255
224
255
255
198
228
255
193
216
247
207
224
254
191
204
236
209
220
238
234
247
255
208
223
246
224
241
255
222
247
255
192
222
255
203
243
255
198
244
255
6
59
93
80
135
166
82
133
164
181
226
255
196
230
255
231
255
255
214
228
255
198
208
235
197
207
217
196
210
221
231
248
255
200
224
248
216
249
255
189
233
255
71
124
164
82
144
185
76
143
185
51
119
156
73
136
171
105
158
190
185
224
253
192
218
243
235
250
255
208
216
237
230
244
247
209
226
233
227
249
255
219
250
255
185
229
255
7
63
100
198
255
255
74
151
197
78
160
207
183
255
255
181
255
255
109
172
207
79
124
153
223
253
255
194
210
233
204
212
231
220
240
241
212
236
240
205
233
245
189
225
247
19
68
98
171
233
255
54
128
173
74
158
205
54
142
190
51
140
184
63
145
185
168
236
255
75
126
157
109
145
171
206
228
252
235
250
255
203
233
241
210
243
252
204
241
255
98
143
164
201
254
255
74
138
173
71
144
185
52
135
179
66
155
199
39
128
170
76
160
197
64
137
172
195
254
255
9
54
85
199
230
255
201
227
254
204
250
255
188
234
250
197
244
255
82
132
155
73
129
156
65
126
157
5
75
109
0
55
91
0
58
95
66
150
186
55
138
172
65
141
173
74
138
173
106
160
196
90
134
169
203
243
255
88
150
175
99
161
186
103
161
185
77
133
158
71
127
152
2
60
84
99
161
186
80
148
171
83
155
179
0
63
87
67
144
170
58
135
163
0
66
99
99
164
202
72
134
175
86
143
186
79
158
189
75
150
181
64
133
162
80
144
171
24
85
106
82
141
159
82
141
157
93
157
169
85
155
167
0
56
69
0
72
89
71
151
174
0
53
83
0
58
96
77
152
194
84
158
203
57
150
183
68
157
189
81
162
191
190
255
255
0
50
67
79
143
155
115
178
185
87
152
154
0
55
57
0
67
71
0
61
68
0
75
89
70
160
184
0
76
107
33
122
162
71
160
202
80
184
213
31
130
159
174
255
255
0
50
70
62
140
153
73
146
153
68
142
143
83
159
155
85
167
163
81
170
166
62
158
157
47
146
152
0
72
86
0
74
96
65
166
196
65
165
197
39
145
167
0
59
80
0
84
103
48
144
158
58
148
157
0
80
84
54
144
144
39
134
130
12
113
105
50
157
149
30
141
135
29
144
141
27
140
144
0
62
71
47
155
168
31
137
153
44
152
164
49
157
169
12
119
129
29
133
142
0
75
82
0
66
69
0
71
71
12
127
122
30
150
141
25
151
140
0
114
103
39
164
156
9
132
127
33
152
148
31
143
144
16
126
127
18
126
128
23
133
134
35
144
147
7
119
121
36
149
153
32
152
153
0
60
62
33
168
164
10
149
142
0
130
120
28
170
158
6
144
131
0
128
114
30
152
137
33
148
133
26
136
123
15
124
119
0
107
104
8
118
117
26
140
141
18
138
139
16
141
143
9
144
147
0
145
142
0
144
140
13
164
155
0
115
103
0
126
109
2
135
118
0
114
93
3
116
96
6
115
94
