P3
16 16
255
0
0
0
0
0
0
0
0
0
0
0
0
0
0
0
0
0
0
0
0
0
0
0
0
0
0
0
0
0
0
51
142
201
51
142
201
51
142
201
51
142
201
51
142
201
51
142
201
0
0
0
0
0
0
255
0
0
255
0
0
255
0
0
255
0
0
255
0
0
255
0
0
0
0
0
0
0
0
51
142
201
51
142
201
51
142
201
51
142
201
51
142
201
51
142
201
0
0
0
255
0
0
255
0
0
255
0
0
255
0
0
255
0
0
255
9
0
249
64
0
154
214
0
0
255
0
47
162
189
51
142
201
51
142
201
51
142
201
51
142
201
51
142
201
0
0
0
255
0
0
255
0
0
255
0
0
255
0
0
255
2
0
252
45
0
222
142
0
67
249
0
0
255
0
15
243
81
49
154
194
51
142
201
51
142
201
51
142
201
51
142
201
0
0
0
255
0
0
255
0
0
255
0
3
255
0
13
254
14
27
243
88
17
162
209
10
38
253
1
0
255
0
1
254
13
30
221
130
51
145
200
51
142
201
51
142
201
51
142
201
0
0
0
255
0
0
255
0
14
251
0
52
246
0
79
237
30
104
210
133
98
77
241
61
0
254
15
0
255
0
0
255
0
1
254
18
31
217
136
51
142
201
51
142
201
51
142
201
0
0
0
255
0
0
246
0
78
211
0
159
178
0
197
129
26
227
106
113
216
20
224
136
0
251
56
0
255
5
0
255
0
0
255
0
0
255
0
0
0
0
0
0
0
0
0
0
0
0
0
0
0
0
166
0
206
89
0
244
22
0
254
0
0
255
0
0
255
10
143
221
0
238
106
0
254
21
0
255
0
0
255
0
0
255
0
0
0
0
0
0
0
0
0
0
0
0
0
0
0
0
0
0
255
13
0
255
0
0
255
0
0
255
0
0
255
0
51
251
0
184
191
0
249
66
0
255
0
0
255
0
0
255
0
0
0
0
0
0
0
0
0
0
255
0
242
255
0
242
111
0
253
18
0
255
2
0
255
0
0
255
0
0
255
0
2
255
0
70
248
0
188
187
0
255
0
0
241
96
0
0
255
0
0
255
0
0
255
0
0
255
255
0
242
255
0
242
240
0
243
119
0
253
37
0
255
2
0
255
0
0
255
0
0
255
0
0
255
0
0
255
0
0
0
0
0
255
0
0
255
0
0
255
0
0
255
0
0
255
255
0
242
255
0
242
255
0
242
235
0
244
131
0
252
21
0
255
0
0
255
0
0
255
47
47
252
224
224
138
242
242
94
95
95
242
23
23
254
0
0
255
0
0
255
0
0
255
255
0
242
255
0
242
255
0
242
254
0
242
233
0
244
95
0
254
0
0
255
59
59
250
233
233
119
255
255
0
251
251
54
192
192
183
84
84
245
9
9
255
0
0
255
0
0
255
255
0
242
255
0
242
255
0
242
255
0
242
254
0
242
228
0
245
0
0
255
229
229
128
255
255
0
255
255
0
255
255
3
240
240
99
138
138
224
32
32
253
0
0
255
0
0
255
255
0
242
255
0
242
255
0
242
255
0
242
255
0
242
255
0
242
0
0
0
255
255
0
255
255
0
255
255
0
255
255
0
255
255
0
199
199
175
57
57
250
0
0
255
0
0
255
255
0
242
255
0
242
255
0
242
255
0
242
255
0
242
255
0
242
0
0
0
255
255
0
255
255
0
255
255
0
255
255
0
255
255
0
231
231
124
92
92
242
0
0
255
0
0
255
